{
  "accessors": [
    {
      "bufferView": 1,
      "componentType": 5126,
      "count": 260,
      "max": [
        1.0,
        1.0,
        1.0
      ],
      "min": [
        -1.0,
        -1.0,
        -1.0
      ],
      "type": "VEC3"
    },
    {
      "bufferView": 1,
      "byteOffset": 3120,
      "componentType": 5126,
      "count": 260,
      "max": [
        1.0,
        1.0,
        1.0
      ],
      "min": [
        -1.0,
        -1.0,
        -1.0
      ],
      "type": "VEC3"
    },
    {
      "bufferView": 0,
      "componentType": 5125,
      "count": 528,
      "type": "SCALAR"
    },
    {
      "bufferView": 1,
      "byteOffset": 6240,
      "componentType": 5126,
      "count": 366,
      "max": [
        1.0589667558670044,
        0.7906641364097595,
        0.845939040184021
      ],
      "min": [
        -1.0773626565933228,
        -0.5649999976158142,
        -0.02012511156499386
      ],
      "type": "VEC3"
    },
    {
      "bufferView": 1,
      "byteOffset": 10632,
      "componentType": 5126,
      "count": 366,
      "max": [
        1.0,
        1.0,
        1.0
      ],
      "min": [
        -1.0,
        -1.0,
        -1.0
      ],
      "type": "VEC3"
    },
    {
      "bufferView": 0,
      "byteOffset": 2112,
      "componentType": 5125,
      "count": 732,
      "type": "SCALAR"
    },
    {
      "bufferView": 1,
      "byteOffset": 15024,
      "componentType": 5126,
      "count": 300,
      "max": [
        1.0589667558670044,
        0.18066412210464478,
        0.5811834931373596
      ],
      "min": [
        -1.0773626565933228,
        -0.20066425204277039,
        0.3916034698486328
      ],
      "type": "VEC3"
    },
    {
      "bufferView": 1,
      "byteOffset": 18624,
      "componentType": 5126,
      "count": 300,
      "max": [
        1.0,
        0.9921186566352844,
        1.0
      ],
      "min": [
        -1.0,
        -0.9921180605888367,
        -1.0
      ],
      "type": "VEC3"
    },
    {
      "bufferView": 0,
      "byteOffset": 5040,
      "componentType": 5125,
      "count": 588,
      "type": "SCALAR"
    },
    {
      "bufferView": 1,
      "byteOffset": 22224,
      "componentType": 5126,
      "count": 300,
      "max": [
        1.0589667558670044,
        -0.42973583936691284,
        0.28045225143432617
      ],
      "min": [
        -1.0773626565933228,
        -0.8110642433166504,
        0.09087222814559937
      ],
      "type": "VEC3"
    },
    {
      "bufferView": 1,
      "byteOffset": 25824,
      "componentType": 5126,
      "count": 300,
      "max": [
        1.0,
        0.9921184778213501,
        1.0
      ],
      "min": [
        -1.0,
        -0.9921180009841919,
        -1.0
      ],
      "type": "VEC3"
    },
    {
      "bufferView": 0,
      "byteOffset": 7392,
      "componentType": 5125,
      "count": 588,
      "type": "SCALAR"
    },
    {
      "bufferView": 1,
      "byteOffset": 29424,
      "componentType": 5126,
      "count": 1200,
      "max": [
        1.0589667558670044,
        0.7678008079528809,
        -0.11864274740219116
      ],
      "min": [
        -1.0773626565933228,
        -0.763527512550354,
        -0.8682227730751038
      ],
      "type": "VEC3"
    },
    {
      "bufferView": 1,
      "byteOffset": 43824,
      "componentType": 5126,
      "count": 1200,
      "max": [
        1.0,
        0.992119312286377,
        1.0
      ],
      "min": [
        -1.0,
        -0.992117702960968,
        -1.0
      ],
      "type": "VEC3"
    },
    {
      "bufferView": 0,
      "byteOffset": 9744,
      "componentType": 5125,
      "count": 2352,
      "type": "SCALAR"
    }
  ],
  "asset": {
    "extras": {
      "author": "cameronac (https://sketchfab.com/cameronac)",
      "license": "CC-BY-4.0 (http://creativecommons.org/licenses/by/4.0/)",
      "source": "https://sketchfab.com/3d-models/domino-062eae7860414d35a47ca94515ee250d",
      "title": "Domino"
    },
    "generator": "Sketchfab-12.67.0",
    "version": "2.0"
  },
  "bufferViews": [
    {
      "buffer": 0,
      "byteLength": 19152,
      "name": "floatBufferViews",
      "target": 34963
    },
    {
      "buffer": 0,
      "byteLength": 58224,
      "byteOffset": 19152,
      "byteStride": 12,
      "name": "floatBufferViews",
      "target": 34962
    }
  ],
  "buffers": [
    {
      "byteLength": 77376,
      "uri": "scene.bin"
    }
  ],
  "materials": [
    {
      "doubleSided": true,
      "name": "White",
      "pbrMetallicRoughness": {
        "metallicFactor": 0.0,
        "roughnessFactor": 0.8239417257
      }
    },
    {
      "doubleSided": true,
      "name": "Black",
      "pbrMetallicRoughness": {
        "baseColorFactor": [
          0.0,
          0.0,
          0.0,
          1.0
        ],
        "metallicFactor": 0.0,
        "roughnessFactor": 0.8239417257
      }
    },
    {
      "doubleSided": true,
      "name": "Black.001",
      "pbrMetallicRoughness": {
        "baseColorFactor": [
          0.0,
          0.0,
          0.0,
          1.0
        ],
        "metallicFactor": 0.0,
        "roughnessFactor": 0.8239417257
      }
    },
    {
      "doubleSided": true,
      "name": "Black.002",
      "pbrMetallicRoughness": {
        "baseColorFactor": [
          0.0,
          0.0,
          0.0,
          1.0
        ],
        "metallicFactor": 0.0,
        "roughnessFactor": 0.8239417257
      }
    },
    {
      "doubleSided": true,
      "name": "Black.003",
      "pbrMetallicRoughness": {
        "baseColorFactor": [
          0.0,
          0.0,
          0.0,
          1.0
        ],
        "metallicFactor": 0.0,
        "roughnessFactor": 0.8239417257
      }
    }
  ],
  "meshes": [
    {
      "name": "Cube_White_0",
      "primitives": [
        {
          "attributes": {
            "NORMAL": 1,
            "POSITION": 0
          },
          "indices": 2,
          "material": 0,
          "mode": 4
        }
      ]
    },
    {
      "name": "Cube_Black_0",
      "primitives": [
        {
          "attributes": {
            "NORMAL": 4,
            "POSITION": 3
          },
          "indices": 5,
          "material": 1,
          "mode": 4
        }
      ]
    },
    {
      "name": "Cube_Black.001_0",
      "primitives": [
        {
          "attributes": {
            "NORMAL": 7,
            "POSITION": 6
          },
          "indices": 8,
          "material": 2,
          "mode": 4
        }
      ]
    },
    {
      "name": "Cube_Black.002_0",
      "primitives": [
        {
          "attributes": {
            "NORMAL": 10,
            "POSITION": 9
          },
          "indices": 11,
          "material": 3,
          "mode": 4
        }
      ]
    },
    {
      "name": "Cube_Black.003_0",
      "primitives": [
        {
          "attributes": {
            "NORMAL": 13,
            "POSITION": 12
          },
          "indices": 14,
          "material": 4,
          "mode": 4
        }
      ]
    }
  ],
  "nodes": [
    {
      "children": [
        1
      ],
      "matrix": [
        1.0,
        0.0,
        0.0,
        0.0,
        0.0,
        2.220446049250313e-16,
        -1.0,
        0.0,
        0.0,
        1.0,
        2.220446049250313e-16,
        0.0,
        0.0,
        0.0,
        0.0,
        1.0
      ],
      "name": "Sketchfab_model"
    },
    {
      "children": [
        2
      ],
      "matrix": [
        1.0,
        0.0,
        0.0,
        0.0,
        0.0,
        0.0,
        1.0,
        0.0,
        0.0,
        -1.0,
        0.0,
        0.0,
        0.0,
        0.0,
        0.0,
        1.0
      ],
      "name": "2c437afbf8004ea7921df766509db69c.fbx"
    },
    {
      "children": [
        3,
        9
      ],
      "name": "RootNode"
    },
    {
      "children": [
        4,
        5,
        6,
        7,
        8
      ],
      "matrix": [
        38.239444732666016,
        0.0,
        0.0,
        0.0,
        0.0,
        -1.629206793918314e-05,
        -99.99999999999868,
        0.0,
        0.0,
        198.75665283202864,
        -3.2381568913040904e-05,
        0.0,
        0.0,
        200.0,
        0.0,
        1.0
      ],
      "name": "Cube"
    },
    {
      "mesh": 0,
      "name": "Cube_White_0"
    },
    {
      "mesh": 1,
      "name": "Cube_Black_0"
    },
    {
      "mesh": 2,
      "name": "Cube_Black.001_0"
    },
    {
      "mesh": 3,
      "name": "Cube_Black.002_0"
    },
    {
      "mesh": 4,
      "name": "Cube_Black.003_0"
    },
    {
      "children": [
        10
      ],
      "matrix": [
        85.03888673211468,
        40.251046147459995,
        33.88570535487812,
        0.0,
        -44.83224984854177,
        89.14142926763311,
        6.623702572024423,
        0.0,
        -27.540092491821195,
        -20.824447015335668,
        93.85032864177175,
        0.0,
        -564.269287109375,
        1483.981201171875,
        17.30031967163086,
        1.0
      ],
      "name": "Sun"
    },
    {
      "children": [
        11
      ],
      "matrix": [
        1.0,
        0.0,
        0.0,
        0.0,
        0.0,
        2.220446049250313e-16,
        1.0,
        0.0,
        0.0,
        -1.0,
        2.220446049250313e-16,
        0.0,
        0.0,
        0.0,
        0.0,
        1.0
      ],
      "name": "Object_10"
    },
    {
      "name": "Object_11"
    }
  ],
  "scene": 0,
  "scenes": [
    {
      "name": "Sketchfab_Scene",
      "nodes": [
        0
      ]
    }
  ]
}
